<svg width="290" height="84" viewBox="0 0 290 84" fill="none" xmlns="http://www.w3.org/2000/svg">
<path d="M11.772 43.1C11.772 45.404 12.294 47.402 13.338 49.094C14.382 50.75 15.75 52.01 17.442 52.874C19.17 53.738 21.06 54.17 23.112 54.17C24.912 54.17 26.496 53.936 27.864 53.468C29.232 53 30.456 52.388 31.536 51.632C32.616 50.876 33.57 50.066 34.398 49.202V59.03C32.886 60.218 31.23 61.154 29.43 61.838C27.63 62.522 25.344 62.864 22.572 62.864C19.548 62.864 16.758 62.396 14.202 61.46C11.646 60.524 9.45 59.174 7.614 57.41C5.778 55.646 4.356 53.558 3.348 51.146C2.34 48.734 1.836 46.052 1.836 43.1C1.836 40.148 2.34 37.466 3.348 35.054C4.356 32.642 5.778 30.554 7.614 28.79C9.45 27.026 11.646 25.676 14.202 24.74C16.758 23.804 19.548 23.336 22.572 23.336C25.344 23.336 27.63 23.678 29.43 24.362C31.23 25.046 32.886 25.982 34.398 27.17V36.998C33.57 36.134 32.616 35.324 31.536 34.568C30.456 33.776 29.232 33.164 27.864 32.732C26.496 32.264 24.912 32.03 23.112 32.03C21.06 32.03 19.17 32.462 17.442 33.326C15.75 34.19 14.382 35.45 13.338 37.106C12.294 38.762 11.772 40.76 11.772 43.1ZM48.1773 37.16V62H40.1313V37.16H48.1773ZM55.3593 45.584C54.9273 45.152 54.4593 44.81 53.9553 44.558C53.4873 44.306 52.8933 44.18 52.1733 44.18C51.3813 44.18 50.6793 44.396 50.0673 44.828C49.4553 45.26 48.9873 45.89 48.6633 46.718C48.3393 47.546 48.1773 48.554 48.1773 49.742L46.2333 46.88C46.2333 44.9 46.6113 43.136 47.3673 41.588C48.1593 40.04 49.1853 38.816 50.4453 37.916C51.7053 37.016 53.0193 36.566 54.3873 36.566C55.2873 36.566 56.1513 36.746 56.9793 37.106C57.8073 37.466 58.4373 37.97 58.8693 38.618L55.3593 45.584ZM88.4832 37.16L72.2832 73.88H64.0752L70.1232 60.002L59.3772 37.16H68.3412L76.3872 57.086L72.1752 57.032L80.1132 37.16H88.4832ZM98.3914 73.88H90.2374V37.16H98.3914V73.88ZM118.695 49.58C118.695 52.46 118.119 54.89 116.967 56.87C115.851 58.85 114.393 60.344 112.593 61.352C110.829 62.36 108.921 62.864 106.869 62.864C104.709 62.864 102.837 62.324 101.253 61.244C99.7054 60.128 98.5174 58.58 97.6894 56.6C96.8614 54.584 96.4474 52.244 96.4474 49.58C96.4474 46.88 96.8614 44.54 97.6894 42.56C98.5174 40.58 99.7054 39.05 101.253 37.97C102.837 36.854 104.709 36.296 106.869 36.296C108.921 36.296 110.829 36.8 112.593 37.808C114.393 38.816 115.851 40.31 116.967 42.29C118.119 44.234 118.695 46.664 118.695 49.58ZM110.109 49.58C110.109 48.284 109.839 47.186 109.299 46.286C108.759 45.386 108.039 44.702 107.139 44.234C106.239 43.766 105.249 43.532 104.169 43.532C103.233 43.532 102.315 43.766 101.415 44.234C100.551 44.666 99.8314 45.332 99.2554 46.232C98.6794 47.132 98.3914 48.248 98.3914 49.58C98.3914 50.912 98.6794 52.028 99.2554 52.928C99.8314 53.828 100.551 54.512 101.415 54.98C102.315 55.412 103.233 55.628 104.169 55.628C105.249 55.628 106.239 55.394 107.139 54.926C108.039 54.458 108.759 53.774 109.299 52.874C109.839 51.974 110.109 50.876 110.109 49.58ZM119.786 37.16H136.418V43.91H119.786V37.16ZM124.16 28.52H131.99V62H124.16V28.52ZM137.517 49.58C137.517 46.952 138.129 44.666 139.353 42.722C140.577 40.778 142.269 39.266 144.429 38.186C146.589 37.106 149.019 36.566 151.719 36.566C154.419 36.566 156.831 37.106 158.955 38.186C161.115 39.266 162.807 40.778 164.031 42.722C165.291 44.666 165.921 46.952 165.921 49.58C165.921 52.172 165.291 54.44 164.031 56.384C162.807 58.328 161.115 59.84 158.955 60.92C156.831 62 154.419 62.54 151.719 62.54C149.019 62.54 146.589 62 144.429 60.92C142.269 59.84 140.577 58.328 139.353 56.384C138.129 54.44 137.517 52.172 137.517 49.58ZM145.887 49.58C145.887 50.876 146.157 51.992 146.697 52.928C147.237 53.828 147.939 54.53 148.803 55.034C149.667 55.538 150.639 55.79 151.719 55.79C152.763 55.79 153.717 55.538 154.581 55.034C155.481 54.53 156.183 53.828 156.687 52.928C157.227 51.992 157.497 50.876 157.497 49.58C157.497 48.284 157.227 47.168 156.687 46.232C156.183 45.296 155.481 44.576 154.581 44.072C153.717 43.568 152.763 43.316 151.719 43.316C150.639 43.316 149.667 43.568 148.803 44.072C147.939 44.576 147.237 45.296 146.697 46.232C146.157 47.168 145.887 48.284 145.887 49.58ZM178.494 43.1C178.494 45.404 179.016 47.402 180.06 49.094C181.104 50.75 182.472 52.01 184.164 52.874C185.892 53.738 187.782 54.17 189.834 54.17C191.634 54.17 193.218 53.936 194.586 53.468C195.954 53 197.178 52.388 198.258 51.632C199.338 50.876 200.292 50.066 201.12 49.202V59.03C199.608 60.218 197.952 61.154 196.152 61.838C194.352 62.522 192.066 62.864 189.294 62.864C186.27 62.864 183.48 62.396 180.924 61.46C178.368 60.524 176.172 59.174 174.336 57.41C172.5 55.646 171.078 53.558 170.07 51.146C169.062 48.734 168.558 46.052 168.558 43.1C168.558 40.148 169.062 37.466 170.07 35.054C171.078 32.642 172.5 30.554 174.336 28.79C176.172 27.026 178.368 25.676 180.924 24.74C183.48 23.804 186.27 23.336 189.294 23.336C192.066 23.336 194.352 23.678 196.152 24.362C197.952 25.046 199.608 25.982 201.12 27.17V36.998C200.292 36.134 199.338 35.324 198.258 34.568C197.178 33.776 195.954 33.164 194.586 32.732C193.218 32.264 191.634 32.03 189.834 32.03C187.782 32.03 185.892 32.462 184.164 33.326C182.472 34.19 181.104 35.45 180.06 37.106C179.016 38.762 178.494 40.76 178.494 43.1ZM205.396 49.58C205.396 46.952 206.008 44.666 207.232 42.722C208.456 40.778 210.148 39.266 212.308 38.186C214.468 37.106 216.898 36.566 219.598 36.566C222.298 36.566 224.71 37.106 226.834 38.186C228.994 39.266 230.686 40.778 231.91 42.722C233.17 44.666 233.8 46.952 233.8 49.58C233.8 52.172 233.17 54.44 231.91 56.384C230.686 58.328 228.994 59.84 226.834 60.92C224.71 62 222.298 62.54 219.598 62.54C216.898 62.54 214.468 62 212.308 60.92C210.148 59.84 208.456 58.328 207.232 56.384C206.008 54.44 205.396 52.172 205.396 49.58ZM213.766 49.58C213.766 50.876 214.036 51.992 214.576 52.928C215.116 53.828 215.818 54.53 216.682 55.034C217.546 55.538 218.518 55.79 219.598 55.79C220.642 55.79 221.596 55.538 222.46 55.034C223.36 54.53 224.062 53.828 224.566 52.928C225.106 51.992 225.376 50.876 225.376 49.58C225.376 48.284 225.106 47.168 224.566 46.232C224.062 45.296 223.36 44.576 222.46 44.072C221.596 43.568 220.642 43.316 219.598 43.316C218.518 43.316 217.546 43.568 216.682 44.072C215.818 44.576 215.116 45.296 214.576 46.232C214.036 47.168 213.766 48.284 213.766 49.58ZM245.833 37.16V62H237.787V37.16H245.833ZM253.015 45.584C252.583 45.152 252.115 44.81 251.611 44.558C251.143 44.306 250.549 44.18 249.829 44.18C249.037 44.18 248.335 44.396 247.723 44.828C247.111 45.26 246.643 45.89 246.319 46.718C245.995 47.546 245.833 48.554 245.833 49.742L243.889 46.88C243.889 44.9 244.267 43.136 245.023 41.588C245.815 40.04 246.841 38.816 248.101 37.916C249.361 37.016 250.675 36.566 252.043 36.566C252.943 36.566 253.807 36.746 254.635 37.106C255.463 37.466 256.093 37.97 256.525 38.618L253.015 45.584ZM277.916 19.88H286.07V62H277.916V19.88ZM257.612 49.58C257.612 46.772 258.17 44.414 259.286 42.506C260.438 40.598 261.914 39.14 263.714 38.132C265.514 37.124 267.422 36.62 269.438 36.62C271.526 36.62 273.362 37.142 274.946 38.186C276.566 39.23 277.844 40.724 278.78 42.668C279.716 44.576 280.184 46.88 280.184 49.58C280.184 52.244 279.716 54.548 278.78 56.492C277.844 58.436 276.566 59.93 274.946 60.974C273.362 62.018 271.526 62.54 269.438 62.54C267.422 62.54 265.514 62.036 263.714 61.028C261.914 60.02 260.438 58.562 259.286 56.654C258.17 54.71 257.612 52.352 257.612 49.58ZM266.198 49.58C266.198 50.876 266.468 52.01 267.008 52.982C267.548 53.918 268.268 54.656 269.168 55.196C270.068 55.7 271.058 55.952 272.138 55.952C273.074 55.952 273.974 55.7 274.838 55.196C275.738 54.692 276.476 53.972 277.052 53.036C277.628 52.064 277.916 50.912 277.916 49.58C277.916 48.248 277.628 47.114 277.052 46.178C276.476 45.206 275.738 44.468 274.838 43.964C273.974 43.46 273.074 43.208 272.138 43.208C271.058 43.208 270.068 43.478 269.168 44.018C268.268 44.522 267.548 45.26 267.008 46.232C266.468 47.168 266.198 48.284 266.198 49.58Z" fill="white"/>
<path d="M73 15H77V19H73V15Z" fill="white"/>
<path d="M216 79H221V84H216V79Z" fill="white"/>
<path d="M148.75 0H158.75V10H148.75V0Z" fill="white"/>
</svg>
